<svg aria-hidden="true" style="position: absolute; width: 0; height: 0; overflow: hidden;" version="1.1" xmlns="http://www.w3.org/2000/svg" xmlns:xlink="http://www.w3.org/1999/xlink">
<defs>
<symbol id="icon-4rec" viewBox="0 0 16 16">
<path d="M7.238 2.755h-6.74c-0.219 0-0.397 0.178-0.397 0.397v4.088c0 0.219 0.178 0.397 0.397 0.397h6.74c0.219 0 0.397-0.178 0.397-0.397v-4.088c0-0.219-0.178-0.397-0.397-0.397zM7.249 7.24c0 0.006-0.005 0.011-0.011 0.011h-6.74c-0.006 0-0.011-0.005-0.011-0.011v-4.088c0-0.006 0.005-0.011 0.011-0.011h6.74c0.006 0 0.011 0.005 0.011 0.011v4.088zM15.502 2.755h-6.74c-0.219 0-0.397 0.178-0.397 0.397v4.088c0 0.219 0.178 0.397 0.397 0.397h6.74c0.219 0 0.397-0.178 0.397-0.397v-4.088c0-0.219-0.178-0.397-0.397-0.397zM15.513 7.24c0 0.006-0.005 0.011-0.011 0.011h-6.74c-0.006 0-0.011-0.005-0.011-0.011v-4.088c0-0.006 0.005-0.011 0.011-0.011h6.74c0.006 0 0.011 0.005 0.011 0.011v4.088zM7.238 8.362h-6.74c-0.219 0-0.397 0.178-0.397 0.397v4.088c0 0.219 0.178 0.398 0.397 0.398h6.74c0.219 0 0.397-0.178 0.397-0.398v-4.088c0-0.219-0.178-0.397-0.397-0.397zM7.249 12.848c0 0.006-0.005 0.011-0.011 0.011h-6.74c-0.006 0-0.011-0.005-0.011-0.011v-4.088c0-0.006 0.005-0.011 0.011-0.011h6.74c0.006 0 0.011 0.005 0.011 0.011v4.088zM15.502 8.362h-6.74c-0.219 0-0.397 0.178-0.397 0.397v4.088c0 0.219 0.178 0.398 0.397 0.398h6.74c0.219 0 0.397-0.178 0.397-0.398v-4.088c0-0.219-0.178-0.397-0.397-0.397zM15.513 12.848c0 0.006-0.005 0.011-0.011 0.011h-6.74c-0.006 0-0.011-0.005-0.011-0.011v-4.088c0-0.006 0.005-0.011 0.011-0.011h6.74c0.006 0 0.011 0.005 0.011 0.011v4.088z"></path>
</symbol>
<symbol id="icon-2rec" viewBox="0 0 16 16">
<path d="M15.346 0.315h-5.983c-0.103 0-0.186 0.083-0.186 0.186v14.478c0 0.103 0.083 0.186 0.186 0.186l5.983-0c0.103 0 0.186-0.083 0.186-0.186v-14.478c0-0.103-0.083-0.186-0.186-0.186zM15.16 14.793h-5.613v-14.107h5.613z"></path>
<path d="M0.868 15.164h5.984c0.103 0 0.186-0.083 0.186-0.186l-0-14.478c0-0.103-0.083-0.186-0.186-0.186h-5.983c-0.103 0-0.186 0.083-0.186 0.186v14.478c0 0.103 0.083 0.186 0.186 0.186zM1.053 0.686h5.612v14.107h-5.612z"></path>
<path d="M-0.552 19.767c-0.032 0.017-0.066 0.029-0.1 0.037s-0.071 0.013-0.109 0.013c-0.113 0-0.202-0.031-0.268-0.094s-0.099-0.149-0.099-0.256c0-0.108 0.033-0.193 0.099-0.256s0.155-0.095 0.268-0.095c0.038 0 0.074 0.004 0.109 0.013s0.068 0.021 0.1 0.037v0.14c-0.033-0.022-0.064-0.038-0.096-0.048s-0.065-0.016-0.099-0.016c-0.062 0-0.111 0.020-0.147 0.060s-0.053 0.095-0.053 0.165c0 0.070 0.018 0.125 0.053 0.165s0.084 0.060 0.147 0.060c0.035 0 0.068-0.005 0.099-0.015s0.063-0.027 0.096-0.049z"></path>
<path d="M-0.038 19.435c-0.014-0.006-0.029-0.011-0.043-0.015s-0.028-0.005-0.042-0.005c-0.042 0-0.074 0.013-0.096 0.040s-0.034 0.065-0.034 0.114v0.234h-0.162v-0.507h0.162v0.083c0.021-0.033 0.045-0.057 0.071-0.073s0.060-0.023 0.097-0.023c0.006 0 0.011 0 0.018 0.001s0.016 0.001 0.028 0.003z"></path>
<path d="M0.549 19.549v0.047h-0.38c0.004 0.038 0.018 0.067 0.041 0.085s0.056 0.029 0.099 0.029c0.034 0 0.069-0.005 0.105-0.015s0.073-0.026 0.11-0.046v0.125c-0.038 0.015-0.077 0.025-0.115 0.033s-0.077 0.011-0.115 0.011c-0.092 0-0.163-0.023-0.214-0.070s-0.076-0.112-0.076-0.196c0-0.083 0.025-0.148 0.075-0.195s0.119-0.071 0.206-0.071c0.080 0 0.144 0.024 0.192 0.073s0.072 0.112 0.072 0.192zM0.383 19.495c0-0.031-0.009-0.055-0.027-0.074s-0.041-0.029-0.070-0.029c-0.031 0-0.057 0.009-0.077 0.026s-0.032 0.043-0.037 0.076z"></path>
<path d="M0.9 19.576c-0.034 0-0.059 0.006-0.077 0.017s-0.025 0.028-0.025 0.051c0 0.021 0.007 0.037 0.021 0.049s0.033 0.017 0.057 0.017c0.031 0 0.056-0.011 0.077-0.033s0.032-0.049 0.032-0.082v-0.019zM1.147 19.515v0.29h-0.163v-0.075c-0.022 0.031-0.046 0.053-0.074 0.067s-0.060 0.021-0.099 0.021c-0.053 0-0.095-0.015-0.128-0.046s-0.049-0.071-0.049-0.12c0-0.059 0.020-0.103 0.061-0.131s0.105-0.042 0.193-0.042h0.096v-0.013c0-0.025-0.010-0.044-0.031-0.056s-0.052-0.018-0.095-0.018c-0.035 0-0.067 0.004-0.097 0.010s-0.057 0.017-0.083 0.031v-0.124c0.034-0.008 0.069-0.015 0.104-0.019s0.070-0.007 0.106-0.007c0.091 0 0.157 0.018 0.198 0.054s0.061 0.095 0.061 0.176z"></path>
<path d="M1.476 19.153v0.144h0.167v0.116h-0.167v0.215c0 0.024 0.005 0.039 0.014 0.048s0.028 0.012 0.055 0.012h0.083v0.116h-0.139c-0.064 0-0.11-0.013-0.137-0.040s-0.040-0.072-0.040-0.136v-0.215h-0.080v-0.116h0.080v-0.144z"></path>
<path d="M2.249 19.549v0.047h-0.38c0.004 0.038 0.018 0.067 0.041 0.085s0.056 0.029 0.099 0.029c0.034 0 0.069-0.005 0.105-0.015s0.073-0.026 0.11-0.046v0.125c-0.038 0.015-0.077 0.025-0.115 0.033s-0.077 0.011-0.115 0.011c-0.092 0-0.163-0.023-0.214-0.070s-0.076-0.112-0.076-0.196c0-0.083 0.025-0.148 0.075-0.195s0.119-0.071 0.206-0.071c0.080 0 0.144 0.024 0.192 0.073s0.072 0.112 0.072 0.192zM2.082 19.495c0-0.031-0.009-0.055-0.027-0.074s-0.041-0.029-0.070-0.029c-0.031 0-0.057 0.009-0.077 0.026s-0.032 0.043-0.037 0.076z"></path>
<path d="M2.717 19.371v-0.272h0.163v0.705h-0.163v-0.074c-0.022 0.030-0.047 0.052-0.074 0.066s-0.058 0.021-0.094 0.021c-0.063 0-0.114-0.025-0.154-0.075s-0.060-0.114-0.060-0.192c0-0.078 0.020-0.142 0.060-0.192s0.091-0.075 0.154-0.075c0.035 0 0.066 0.007 0.093 0.021s0.052 0.036 0.074 0.065zM2.61 19.7c0.034 0 0.061-0.013 0.079-0.038s0.027-0.062 0.027-0.111c0-0.048-0.009-0.085-0.027-0.11s-0.045-0.038-0.079-0.038c-0.035 0-0.061 0.013-0.079 0.038s-0.027 0.062-0.027 0.11c0 0.048 0.009 0.085 0.027 0.111s0.045 0.038 0.079 0.038z"></path>
<path d="M3.629 19.7c0.035 0 0.061-0.013 0.080-0.038s0.027-0.062 0.027-0.111c0-0.048-0.009-0.085-0.027-0.11s-0.045-0.038-0.080-0.038c-0.035 0-0.062 0.013-0.080 0.038s-0.027 0.062-0.027 0.11c0 0.048 0.009 0.085 0.027 0.11s0.045 0.038 0.080 0.038zM3.521 19.371c0.022-0.029 0.047-0.051 0.074-0.065s0.058-0.021 0.094-0.021c0.063 0 0.114 0.025 0.154 0.075s0.060 0.114 0.060 0.192c0 0.078-0.020 0.142-0.060 0.192s-0.091 0.075-0.154 0.075c-0.035 0-0.067-0.007-0.094-0.021s-0.052-0.036-0.074-0.066v0.074h-0.162v-0.705h0.162z"></path>
<path d="M3.957 19.297h0.162l0.137 0.344 0.116-0.344h0.162l-0.213 0.556c-0.021 0.056-0.046 0.096-0.075 0.118s-0.066 0.034-0.113 0.034h-0.094v-0.107h0.051c0.028 0 0.048-0.005 0.060-0.013s0.023-0.024 0.029-0.047l0.005-0.014z"></path>
<path d="M4.959 19.128h0.222l0.154 0.362 0.155-0.362h0.222v0.676h-0.165v-0.495l-0.156 0.365h-0.11l-0.156-0.365v0.495h-0.165z"></path>
<path d="M6.102 19.576c-0.034 0-0.059 0.006-0.077 0.017s-0.025 0.028-0.025 0.051c0 0.021 0.007 0.037 0.021 0.049s0.033 0.017 0.057 0.017c0.031 0 0.056-0.011 0.077-0.033s0.032-0.049 0.032-0.082v-0.019zM6.35 19.515v0.29h-0.163v-0.075c-0.022 0.031-0.046 0.053-0.074 0.067s-0.060 0.021-0.099 0.021c-0.053 0-0.095-0.015-0.128-0.046s-0.049-0.071-0.049-0.12c0-0.059 0.020-0.103 0.061-0.131s0.105-0.042 0.193-0.042h0.096v-0.013c0-0.025-0.010-0.044-0.031-0.056s-0.052-0.018-0.095-0.018c-0.035 0-0.067 0.004-0.097 0.010s-0.057 0.017-0.083 0.031v-0.124c0.035-0.008 0.069-0.015 0.104-0.019s0.070-0.007 0.106-0.007c0.091 0 0.157 0.018 0.198 0.054s0.061 0.095 0.061 0.176z"></path>
<path d="M6.846 19.371v-0.272h0.163v0.705h-0.163v-0.074c-0.022 0.030-0.047 0.052-0.074 0.066s-0.058 0.021-0.094 0.021c-0.063 0-0.114-0.025-0.154-0.075s-0.060-0.114-0.060-0.192c0-0.078 0.020-0.142 0.060-0.192s0.091-0.075 0.154-0.075c0.035 0 0.066 0.007 0.093 0.021s0.052 0.036 0.074 0.065zM6.74 19.7c0.035 0 0.061-0.013 0.079-0.038s0.027-0.062 0.027-0.111c0-0.048-0.009-0.085-0.027-0.11s-0.045-0.038-0.079-0.038c-0.035 0-0.061 0.013-0.079 0.038s-0.027 0.062-0.027 0.11c0 0.048 0.009 0.085 0.027 0.111s0.045 0.038 0.079 0.038z"></path>
<path d="M7.672 19.549v0.047h-0.38c0.004 0.038 0.018 0.067 0.041 0.085s0.056 0.029 0.099 0.029c0.034 0 0.069-0.005 0.105-0.015s0.073-0.026 0.11-0.046v0.125c-0.038 0.015-0.077 0.025-0.115 0.033s-0.077 0.011-0.115 0.011c-0.092 0-0.163-0.023-0.214-0.070s-0.076-0.112-0.076-0.196c0-0.083 0.025-0.148 0.075-0.195s0.119-0.071 0.206-0.071c0.080 0 0.144 0.024 0.192 0.073s0.072 0.112 0.072 0.192zM7.505 19.495c0-0.031-0.009-0.055-0.027-0.074s-0.041-0.029-0.070-0.029c-0.031 0-0.057 0.009-0.077 0.026s-0.032 0.043-0.037 0.076z"></path>
<path d="M-0.762 20.027v0.107h-0.090c-0.023 0-0.039 0.004-0.048 0.012s-0.013 0.023-0.013 0.044v0.035h0.139v0.116h-0.139v0.391h-0.162v-0.391h-0.081v-0.116h0.081v-0.035c0-0.055 0.015-0.096 0.046-0.123s0.078-0.040 0.143-0.040z"></path>
<path d="M-0.315 20.363c-0.015-0.006-0.029-0.011-0.043-0.015s-0.028-0.005-0.042-0.005c-0.042 0-0.074 0.013-0.096 0.040s-0.034 0.065-0.034 0.114v0.234h-0.162v-0.507h0.162v0.083c0.021-0.033 0.045-0.057 0.071-0.073s0.060-0.023 0.097-0.023c0.006 0 0.011 0 0.018 0.001s0.016 0.001 0.028 0.003z"></path>
<path d="M0.007 20.329c-0.036 0-0.064 0.013-0.082 0.039s-0.029 0.063-0.029 0.112 0.009 0.086 0.029 0.112c0.019 0.026 0.046 0.038 0.082 0.038s0.062-0.013 0.081-0.038c0.019-0.026 0.029-0.063 0.029-0.112s-0.010-0.086-0.029-0.112c-0.019-0.026-0.046-0.039-0.081-0.039zM0.007 20.213c0.087 0 0.155 0.024 0.205 0.071s0.074 0.112 0.074 0.196c0 0.083-0.025 0.149-0.074 0.196s-0.117 0.070-0.205 0.070c-0.088 0-0.156-0.023-0.206-0.070s-0.074-0.112-0.074-0.196c0-0.083 0.025-0.149 0.074-0.196s0.118-0.071 0.206-0.071z"></path>
<path d="M0.873 20.31c0.020-0.031 0.045-0.055 0.073-0.072s0.059-0.025 0.093-0.025c0.058 0 0.103 0.018 0.133 0.054s0.046 0.088 0.046 0.156v0.309h-0.163v-0.277c0-0.004 0-0.011 0-0.019 0-0.036-0.006-0.062-0.016-0.078s-0.027-0.024-0.051-0.024c-0.031 0-0.055 0.013-0.071 0.038s-0.026 0.062-0.026 0.11v0.249h-0.163v-0.265c0-0.056-0.005-0.092-0.014-0.108s-0.027-0.024-0.052-0.024c-0.031 0-0.055 0.013-0.072 0.038s-0.025 0.062-0.025 0.109v0.25h-0.163v-0.507h0.163v0.074c0.020-0.029 0.043-0.050 0.068-0.065s0.054-0.022 0.085-0.022c0.035 0 0.066 0.009 0.093 0.025s0.047 0.041 0.061 0.071z"></path>
<path d="M1.87 20.081v0.144h0.167v0.116h-0.167v0.215c0 0.024 0.005 0.039 0.014 0.048s0.028 0.012 0.055 0.012h0.083v0.116h-0.139c-0.064 0-0.11-0.013-0.137-0.040s-0.040-0.072-0.040-0.136v-0.215h-0.080v-0.116h0.080v-0.144z"></path>
<path d="M2.647 20.424v0.309h-0.163v-0.236c0-0.045-0.001-0.075-0.003-0.092s-0.006-0.029-0.010-0.037c-0.006-0.010-0.015-0.018-0.026-0.024s-0.023-0.009-0.037-0.009c-0.034 0-0.060 0.013-0.080 0.039s-0.029 0.062-0.029 0.108v0.25h-0.162v-0.705h0.162v0.272c0.025-0.029 0.050-0.051 0.078-0.065s0.058-0.021 0.091-0.021c0.059 0 0.103 0.018 0.134 0.054s0.046 0.088 0.046 0.156z"></path>
<path d="M3.304 20.477v0.047h-0.38c0.004 0.038 0.018 0.067 0.041 0.085s0.056 0.029 0.099 0.029c0.034 0 0.069-0.005 0.105-0.015s0.073-0.026 0.11-0.046v0.125c-0.038 0.015-0.077 0.025-0.115 0.033s-0.077 0.011-0.115 0.011c-0.092 0-0.163-0.023-0.214-0.070s-0.076-0.112-0.076-0.196c0-0.083 0.025-0.148 0.075-0.195s0.119-0.071 0.206-0.071c0.080 0 0.144 0.024 0.192 0.073s0.072 0.112 0.072 0.192zM3.137 20.424c0-0.031-0.009-0.055-0.027-0.074s-0.041-0.029-0.070-0.029c-0.031 0-0.057 0.009-0.077 0.026s-0.032 0.043-0.037 0.076z"></path>
<path d="M3.757 20.056h0.195l0.246 0.464v-0.464h0.165v0.676h-0.195l-0.246-0.464v0.464h-0.165z"></path>
<path d="M4.768 20.329c-0.036 0-0.064 0.013-0.082 0.039s-0.029 0.063-0.029 0.112 0.009 0.086 0.029 0.112c0.019 0.026 0.046 0.038 0.082 0.038s0.062-0.013 0.081-0.038c0.019-0.026 0.029-0.063 0.029-0.112s-0.010-0.086-0.029-0.112c-0.019-0.026-0.046-0.039-0.081-0.039zM4.768 20.213c0.087 0 0.155 0.024 0.205 0.071s0.074 0.112 0.074 0.196c0 0.083-0.025 0.149-0.074 0.196s-0.117 0.070-0.205 0.070c-0.088 0-0.156-0.023-0.206-0.070s-0.074-0.112-0.074-0.196c0-0.083 0.025-0.149 0.074-0.196s0.118-0.071 0.206-0.071z"></path>
<path d="M5.159 20.535v-0.31h0.163v0.051c0 0.028-0 0.062-0 0.104s-0 0.069-0 0.083 0.001 0.071 0.003 0.089c0.002 0.018 0.006 0.031 0.011 0.039 0.007 0.011 0.016 0.019 0.026 0.025s0.023 0.008 0.037 0.008c0.034 0 0.060-0.013 0.080-0.039s0.029-0.062 0.029-0.108v-0.251h0.162v0.507h-0.162v-0.074c-0.025 0.030-0.050 0.052-0.078 0.066s-0.058 0.021-0.091 0.021c-0.058 0-0.103-0.018-0.134-0.054s-0.046-0.088-0.046-0.157z"></path>
<path d="M6.335 20.424v0.309h-0.163v-0.237c0-0.044-0.001-0.074-0.003-0.091s-0.006-0.029-0.010-0.037c-0.006-0.010-0.015-0.018-0.026-0.024s-0.023-0.009-0.037-0.009c-0.034 0-0.060 0.013-0.080 0.039s-0.029 0.062-0.029 0.108v0.25h-0.162v-0.507h0.162v0.074c0.024-0.029 0.050-0.051 0.078-0.065s0.058-0.021 0.091-0.021c0.059 0 0.103 0.018 0.134 0.054s0.046 0.088 0.046 0.156z"></path>
<path d="M6.816 20.056h0.29c0.086 0 0.152 0.019 0.198 0.058s0.069 0.093 0.069 0.163c0 0.071-0.023 0.125-0.069 0.164s-0.112 0.058-0.198 0.058h-0.116v0.235h-0.174zM6.99 20.183v0.189h0.097c0.034 0 0.060-0.008 0.078-0.025s0.028-0.040 0.028-0.070c0-0.030-0.009-0.054-0.028-0.070s-0.044-0.024-0.078-0.024z"></path>
<path d="M7.866 20.363c-0.014-0.006-0.029-0.011-0.043-0.015s-0.028-0.005-0.042-0.005c-0.042 0-0.074 0.013-0.096 0.040s-0.034 0.065-0.034 0.114v0.234h-0.162v-0.507h0.162v0.083c0.021-0.033 0.045-0.057 0.071-0.073s0.060-0.023 0.097-0.023c0.005 0 0.011 0 0.018 0.001s0.016 0.001 0.028 0.003z"></path>
<path d="M8.188 20.329c-0.036 0-0.063 0.013-0.082 0.039s-0.029 0.063-0.029 0.112 0.009 0.086 0.029 0.112c0.019 0.026 0.046 0.038 0.082 0.038s0.062-0.013 0.081-0.038c0.019-0.026 0.029-0.063 0.029-0.112s-0.010-0.086-0.029-0.112c-0.019-0.026-0.046-0.039-0.081-0.039zM8.188 20.213c0.087 0 0.155 0.024 0.205 0.071s0.074 0.112 0.074 0.196c0 0.083-0.025 0.149-0.074 0.196s-0.117 0.070-0.205 0.070c-0.088 0-0.156-0.023-0.206-0.070s-0.074-0.112-0.074-0.196c0-0.083 0.025-0.149 0.074-0.196s0.118-0.071 0.206-0.071z"></path>
<path d="M8.584 20.225h0.162v0.498c0 0.068-0.016 0.12-0.049 0.156s-0.080 0.054-0.142 0.054h-0.080v-0.107h0.029c0.031 0 0.052-0.007 0.063-0.021s0.018-0.041 0.018-0.082zM8.584 20.027h0.162v0.133h-0.162z"></path>
<path d="M9.409 20.477v0.047h-0.38c0.004 0.038 0.018 0.067 0.041 0.085s0.056 0.029 0.099 0.029c0.034 0 0.069-0.005 0.105-0.015s0.073-0.026 0.11-0.046v0.125c-0.038 0.015-0.077 0.025-0.115 0.033s-0.077 0.011-0.115 0.011c-0.092 0-0.163-0.023-0.214-0.070s-0.076-0.112-0.076-0.196c0-0.083 0.025-0.148 0.075-0.195s0.119-0.071 0.206-0.071c0.080 0 0.144 0.024 0.192 0.073s0.072 0.112 0.072 0.192zM9.242 20.424c0-0.031-0.009-0.055-0.027-0.074s-0.041-0.029-0.070-0.029c-0.031 0-0.057 0.009-0.077 0.026s-0.032 0.043-0.037 0.076z"></path>
<path d="M9.942 20.241v0.132c-0.022-0.015-0.044-0.026-0.066-0.034s-0.045-0.011-0.069-0.011c-0.045 0-0.081 0.013-0.106 0.040s-0.038 0.063-0.038 0.111c0 0.047 0.013 0.084 0.038 0.111s0.061 0.039 0.106 0.039c0.025 0 0.049-0.004 0.072-0.011s0.044-0.019 0.063-0.034v0.133c-0.025 0.009-0.051 0.016-0.077 0.021s-0.052 0.007-0.079 0.007c-0.091 0-0.163-0.023-0.215-0.070s-0.077-0.112-0.077-0.196c0-0.084 0.026-0.149 0.077-0.196s0.123-0.070 0.215-0.070c0.027 0 0.053 0.002 0.079 0.007s0.052 0.012 0.077 0.021z"></path>
<path d="M10.259 20.081v0.144h0.167v0.116h-0.167v0.215c0 0.024 0.005 0.039 0.014 0.048s0.028 0.012 0.055 0.012h0.083v0.116h-0.139c-0.064 0-0.11-0.013-0.137-0.040s-0.040-0.072-0.040-0.136v-0.215h-0.080v-0.116h0.080v-0.144z"></path>
</symbol>
<symbol id="icon-heart" viewBox="0 0 16 16">
<path d="M11.833 0.667c-1.775 0-3.241 1.648-3.833 2.426-0.593-0.778-2.059-2.426-3.833-2.426-2.297 0-4.167 2.112-4.167 4.708 0 1.416 0.562 2.736 1.546 3.64 0.014 0.025 0.032 0.048 0.052 0.068l6.166 6.153c0.065 0.065 0.15 0.097 0.235 0.097s0.171-0.033 0.236-0.098l6.437-6.433c0.052-0.049 0.104-0.099 0.161-0.163 0.024-0.024 0.044-0.050 0.059-0.079 0.715-0.875 1.107-2.004 1.107-3.186 0-2.596-1.869-4.708-4.167-4.708zM14.338 8.186c-0.009 0.011-0.018 0.022-0.025 0.034-0.031 0.036-0.065 0.067-0.099 0.1l-6.214 6.21-5.854-5.842c-0.019-0.037-0.045-0.071-0.077-0.099-0.891-0.778-1.402-1.949-1.402-3.213 0-2.229 1.57-4.042 3.5-4.042 1.908 0 3.537 2.489 3.553 2.514 0.123 0.19 0.438 0.19 0.561 0 0.016-0.025 1.645-2.514 3.553-2.514 1.93 0 3.5 1.813 3.5 4.042 0 1.050-0.354 2.049-0.995 2.811z"></path>
</symbol>
</defs>
</svg>
